<svg viewBox="0 0 800 500" xmlns="http://www.w3.org/2000/svg">
  <defs>
    <linearGradient id="bg3" x1="0%" y1="0%" x2="100%" y2="100%">
      <stop offset="0%" stop-color="#1e1636"/>
      <stop offset="100%" stop-color="#0f0a1e"/>
    </linearGradient>
    <radialGradient id="glow3" cx="50%" cy="45%" r="60%">
      <stop offset="0%" stop-color="#7c3aed" stop-opacity="0.42"/>
      <stop offset="100%" stop-color="#7c3aed" stop-opacity="0"/>
    </radialGradient>
  </defs>
  <rect width="800" height="500" fill="url(#bg3)"/>
  <rect width="800" height="500" fill="url(#glow3)"/>

  <g transform="translate(210,130)">
    <rect x="0" y="0" width="170" height="240" rx="10" fill="none" stroke="#c4b5fd" stroke-width="2.5"/>
    <line x1="26" y1="40" x2="144" y2="40" stroke="#a78bfa" stroke-width="4" opacity="0.9"/>
    <line x1="26" y1="70" x2="144" y2="70" stroke="#ffffff" stroke-width="2" opacity="0.3"/>
    <line x1="26" y1="94" x2="120" y2="94" stroke="#ffffff" stroke-width="2" opacity="0.3"/>
    <line x1="26" y1="118" x2="144" y2="118" stroke="#ffffff" stroke-width="2" opacity="0.3"/>
    <line x1="26" y1="142" x2="104" y2="142" stroke="#ffffff" stroke-width="2" opacity="0.3"/>
  </g>
  <g transform="translate(420,130)">
    <rect x="0" y="0" width="170" height="240" rx="10" fill="none" stroke="#c4b5fd" stroke-width="2.5"/>
    <rect x="26" y="34" width="118" height="16" rx="4" fill="#7c3aed" opacity="0.5"/>
    <line x1="26" y1="74" x2="144" y2="74" stroke="#ffffff" stroke-width="2" opacity="0.3"/>
    <line x1="26" y1="98" x2="120" y2="98" stroke="#ffffff" stroke-width="2" opacity="0.3"/>
    <line x1="26" y1="122" x2="144" y2="122" stroke="#ffffff" stroke-width="2" opacity="0.3"/>
  </g>
  <g transform="translate(400,250)">
    <circle cx="0" cy="0" r="48" fill="#0f0a1e" stroke="#a78bfa" stroke-width="3"/>
    <text x="0" y="10" text-anchor="middle" font-family="'Segoe UI', Roboto, Arial, sans-serif" font-size="26" fill="#ffffff" font-weight="700">AI</text>
  </g>
</svg>
