<svg viewBox="0 0 800 500" xmlns="http://www.w3.org/2000/svg">
  <defs>
    <linearGradient id="bg1" x1="0%" y1="0%" x2="100%" y2="100%">
      <stop offset="0%" stop-color="#1e1636"/>
      <stop offset="100%" stop-color="#0f0a1e"/>
    </linearGradient>
    <radialGradient id="glow1" cx="50%" cy="45%" r="60%">
      <stop offset="0%" stop-color="#7c3aed" stop-opacity="0.45"/>
      <stop offset="100%" stop-color="#7c3aed" stop-opacity="0"/>
    </radialGradient>
  </defs>
  <rect width="800" height="500" fill="url(#bg1)"/>
  <rect width="800" height="500" fill="url(#glow1)"/>

  <g stroke="#a78bfa" stroke-width="1.5" opacity="0.55" fill="none">
    <line x1="230" y1="170" x2="400" y2="250"/>
    <line x1="570" y1="170" x2="400" y2="250"/>
    <line x1="230" y1="330" x2="400" y2="250"/>
    <line x1="570" y1="330" x2="400" y2="250"/>
    <line x1="230" y1="170" x2="230" y2="330"/>
    <line x1="570" y1="170" x2="570" y2="330"/>
  </g>

  <g fill="none" stroke="#c4b5fd" stroke-width="2">
    <rect x="180" y="140" width="100" height="60" rx="10"/>
    <rect x="520" y="140" width="100" height="60" rx="10"/>
    <rect x="180" y="300" width="100" height="60" rx="10"/>
    <rect x="520" y="300" width="100" height="60" rx="10"/>
  </g>
  <circle cx="400" cy="250" r="46" fill="#0f0a1e" stroke="#a78bfa" stroke-width="2.5"/>
  <circle cx="400" cy="250" r="8" fill="#a78bfa"/>
  <g fill="#c4b5fd">
    <circle cx="230" cy="170" r="5"/>
    <circle cx="570" cy="170" r="5"/>
    <circle cx="230" cy="330" r="5"/>
    <circle cx="570" cy="330" r="5"/>
  </g>
</svg>
