<svg viewBox="0 0 800 500" xmlns="http://www.w3.org/2000/svg">
  <defs>
    <linearGradient id="obg1" x1="0%" y1="0%" x2="100%" y2="100%">
      <stop offset="0%" stop-color="#160e28"/>
      <stop offset="100%" stop-color="#0c0818"/>
    </linearGradient>
    <radialGradient id="oglow1" cx="50%" cy="0%" r="75%">
      <stop offset="0%" stop-color="#7c6ff0" stop-opacity="0.4"/>
      <stop offset="100%" stop-color="#7c6ff0" stop-opacity="0"/>
    </radialGradient>
  </defs>
  <rect width="800" height="500" fill="url(#obg1)"/>
  <rect width="800" height="500" fill="url(#oglow1)"/>

  <g transform="translate(400,175)">
    <circle r="70" fill="none" stroke="#e978ab" stroke-width="2" opacity="0.8"/>
    <circle r="46" fill="none" stroke="#a89bf7" stroke-width="2" opacity="0.7"/>
    <circle r="6" fill="#e978ab"/>
    <g stroke="#a89bf7" stroke-width="1.5" opacity="0.7">
      <line x1="0" y1="-70" x2="0" y2="-46"/>
      <line x1="0" y1="70" x2="0" y2="46"/>
      <line x1="-70" y1="0" x2="-46" y2="0"/>
      <line x1="70" y1="0" x2="46" y2="0"/>
      <line x1="-49" y1="-49" x2="-32" y2="-32"/>
      <line x1="49" y1="49" x2="32" y2="32"/>
      <line x1="-49" y1="49" x2="-32" y2="32"/>
      <line x1="49" y1="-49" x2="32" y2="-32"/>
    </g>
    <circle cx="0" cy="-70" r="5" fill="#e978ab"/>
    <circle cx="0" cy="70" r="5" fill="#e978ab"/>
    <circle cx="-70" cy="0" r="5" fill="#e978ab"/>
    <circle cx="70" cy="0" r="5" fill="#e978ab"/>
    <text x="0" y="7" text-anchor="middle" font-family="'Segoe UI', Roboto, Arial, sans-serif" font-size="20" font-weight="700" fill="#ffffff">MCP</text>
  </g>

  <text x="400" y="410" text-anchor="middle" font-family="'Segoe UI', Roboto, Arial, sans-serif" font-size="32" font-weight="700" fill="#ffffff">Gen AI Tooling for OAC</text>
  <text x="400" y="445" text-anchor="middle" font-family="'Segoe UI', Roboto, Arial, sans-serif" font-size="18" fill="#b3a8e0">Oracle Analytics Cloud — Control Plane</text>

  <g font-family="'Segoe UI', Roboto, Arial, sans-serif" font-size="13" fill="#ffffff">
    <rect x="280" y="460" width="55" height="24" rx="12" fill="#7c6ff0" opacity="0.35"/>
    <text x="307" y="476" text-anchor="middle">MCP</text>
    <rect x="345" y="460" width="55" height="24" rx="12" fill="#7c6ff0" opacity="0.35"/>
    <text x="372" y="476" text-anchor="middle">RAG</text>
    <rect x="410" y="460" width="55" height="24" rx="12" fill="#7c6ff0" opacity="0.35"/>
    <text x="437" y="476" text-anchor="middle">LLM</text>
    <rect x="475" y="460" width="55" height="24" rx="12" fill="#7c6ff0" opacity="0.35"/>
    <text x="502" y="476" text-anchor="middle">OCI</text>
  </g>
</svg>
