<svg viewBox="0 0 800 500" xmlns="http://www.w3.org/2000/svg">
  <defs>
    <linearGradient id="obg3" x1="0%" y1="0%" x2="100%" y2="100%">
      <stop offset="0%" stop-color="#160e28"/>
      <stop offset="100%" stop-color="#0c0818"/>
    </linearGradient>
    <radialGradient id="oglow3" cx="50%" cy="0%" r="75%">
      <stop offset="0%" stop-color="#50c878" stop-opacity="0.35"/>
      <stop offset="100%" stop-color="#50c878" stop-opacity="0"/>
    </radialGradient>
  </defs>
  <rect width="800" height="500" fill="url(#obg3)"/>
  <rect width="800" height="500" fill="url(#oglow3)"/>

  <g transform="translate(400,175)">
    <path d="M 0 -80 L 62 -50 L 62 20 C 62 60 34 88 0 100 C -34 88 -62 60 -62 20 L -62 -50 Z"
          fill="none" stroke="#50c878" stroke-width="2.5" opacity="0.85"/>
    <path d="M -24 6 L -8 24 L 26 -18" fill="none" stroke="#ffffff" stroke-width="5" stroke-linecap="round" stroke-linejoin="round" opacity="0.9"/>
  </g>

  <text x="400" y="410" text-anchor="middle" font-family="'Segoe UI', Roboto, Arial, sans-serif" font-size="30" font-weight="700" fill="#ffffff">Fleet-Wide Security</text>
  <text x="400" y="445" text-anchor="middle" font-family="'Segoe UI', Roboto, Arial, sans-serif" font-size="18" fill="#a3c9b3">&amp; Reliability — 50 OAC Regions</text>

  <g font-family="'Segoe UI', Roboto, Arial, sans-serif" font-size="13" fill="#ffffff">
    <rect x="240" y="460" width="55" height="24" rx="12" fill="#50c878" opacity="0.3"/>
    <text x="267" y="476" text-anchor="middle">OCI</text>
    <rect x="305" y="460" width="90" height="24" rx="12" fill="#50c878" opacity="0.3"/>
    <text x="350" y="476" text-anchor="middle">Security</text>
    <rect x="405" y="460" width="80" height="24" rx="12" fill="#50c878" opacity="0.3"/>
    <text x="445" y="476" text-anchor="middle">Python</text>
    <rect x="495" y="460" width="70" height="24" rx="12" fill="#50c878" opacity="0.3"/>
    <text x="530" y="476" text-anchor="middle">SRE</text>
  </g>
</svg>
